<?xml version="1.0" encoding="utf-8" standalone="no"?>
<!DOCTYPE svg PUBLIC "-//W3C//DTD SVG 1.1//EN"
  "http://www.w3.org/Graphics/SVG/1.1/DTD/svg11.dtd">
<!-- Created with matplotlib (http://matplotlib.org/) -->
<svg height="144pt" version="1.1" viewBox="0 0 432 144" width="432pt" xmlns="http://www.w3.org/2000/svg" xmlns:xlink="http://www.w3.org/1999/xlink">
 <defs>
  <style type="text/css">
*{stroke-linecap:butt;stroke-linejoin:round;}
  </style>
 </defs>
 <g id="figure_1">
  <g id="patch_1">
   <path d="
M0 144
L432 144
L432 0
L0 0
z
" style="fill:none;"/>
  </g>
  <g id="axes_1">
   <g id="legend_1">
    <g id="patch_2">
     <path d="
M56.8586 112.879
L385.941 112.879
Q388.821 112.879 388.821 109.999
L388.821 34.0006
Q388.821 31.1206 385.941 31.1206
L56.8586 31.1206
Q53.9786 31.1206 53.9786 34.0006
L53.9786 109.999
Q53.9786 112.879 56.8586 112.879
z
" style="fill:#ffffff;stroke:#000000;"/>
    </g>
    <g id="patch_3">
     <path d="
M59.7386 46.9606
L88.5386 46.9606
L88.5386 36.8806
L59.7386 36.8806
z
" style="fill:#a52a2a;opacity:0.5;stroke:#000000;"/>
    </g>
    <g id="text_1">
     <!-- johnny and the sinsaa -->
     <defs>
      <path id="BitstreamVeraSans-Roman-20"/>
      <path d="
M54.8906 33.0156
L54.8906 0
L45.9062 0
L45.9062 32.7188
Q45.9062 40.4844 42.875 44.3281
Q39.8438 48.1875 33.7969 48.1875
Q26.5156 48.1875 22.3125 43.5469
Q18.1094 38.9219 18.1094 30.9062
L18.1094 0
L9.07812 0
L9.07812 54.6875
L18.1094 54.6875
L18.1094 46.1875
Q21.3438 51.125 25.7031 53.5625
Q30.0781 56 35.7969 56
Q45.2188 56 50.0469 50.1719
Q54.8906 44.3438 54.8906 33.0156" id="BitstreamVeraSans-Roman-6e"/>
      <path d="
M30.6094 48.3906
Q23.3906 48.3906 19.1875 42.75
Q14.9844 37.1094 14.9844 27.2969
Q14.9844 17.4844 19.1562 11.8438
Q23.3438 6.20312 30.6094 6.20312
Q37.7969 6.20312 41.9844 11.8594
Q46.1875 17.5312 46.1875 27.2969
Q46.1875 37.0156 41.9844 42.7031
Q37.7969 48.3906 30.6094 48.3906
M30.6094 56
Q42.3281 56 49.0156 48.375
Q55.7188 40.7656 55.7188 27.2969
Q55.7188 13.875 49.0156 6.21875
Q42.3281 -1.42188 30.6094 -1.42188
Q18.8438 -1.42188 12.1719 6.21875
Q5.51562 13.875 5.51562 27.2969
Q5.51562 40.7656 12.1719 48.375
Q18.8438 56 30.6094 56" id="BitstreamVeraSans-Roman-6f"/>
      <path d="
M9.42188 54.6875
L18.4062 54.6875
L18.4062 -0.984375
Q18.4062 -11.4219 14.4219 -16.1094
Q10.4531 -20.7969 1.60938 -20.7969
L-1.8125 -20.7969
L-1.8125 -13.1875
L0.59375 -13.1875
Q5.71875 -13.1875 7.5625 -10.8125
Q9.42188 -8.45312 9.42188 -0.984375
z

M9.42188 75.9844
L18.4062 75.9844
L18.4062 64.5938
L9.42188 64.5938
z
" id="BitstreamVeraSans-Roman-6a"/>
      <path d="
M9.42188 54.6875
L18.4062 54.6875
L18.4062 0
L9.42188 0
z

M9.42188 75.9844
L18.4062 75.9844
L18.4062 64.5938
L9.42188 64.5938
z
" id="BitstreamVeraSans-Roman-69"/>
      <path d="
M54.8906 33.0156
L54.8906 0
L45.9062 0
L45.9062 32.7188
Q45.9062 40.4844 42.875 44.3281
Q39.8438 48.1875 33.7969 48.1875
Q26.5156 48.1875 22.3125 43.5469
Q18.1094 38.9219 18.1094 30.9062
L18.1094 0
L9.07812 0
L9.07812 75.9844
L18.1094 75.9844
L18.1094 46.1875
Q21.3438 51.125 25.7031 53.5625
Q30.0781 56 35.7969 56
Q45.2188 56 50.0469 50.1719
Q54.8906 44.3438 54.8906 33.0156" id="BitstreamVeraSans-Roman-68"/>
      <path d="
M32.1719 -5.07812
Q28.375 -14.8438 24.75 -17.8125
Q21.1406 -20.7969 15.0938 -20.7969
L7.90625 -20.7969
L7.90625 -13.2812
L13.1875 -13.2812
Q16.8906 -13.2812 18.9375 -11.5156
Q21 -9.76562 23.4844 -3.21875
L25.0938 0.875
L2.98438 54.6875
L12.5 54.6875
L29.5938 11.9219
L46.6875 54.6875
L56.2031 54.6875
z
" id="BitstreamVeraSans-Roman-79"/>
      <path d="
M56.2031 29.5938
L56.2031 25.2031
L14.8906 25.2031
Q15.4844 15.9219 20.4844 11.0625
Q25.4844 6.20312 34.4219 6.20312
Q39.5938 6.20312 44.4531 7.46875
Q49.3125 8.73438 54.1094 11.2812
L54.1094 2.78125
Q49.2656 0.734375 44.1875 -0.34375
Q39.1094 -1.42188 33.8906 -1.42188
Q20.7969 -1.42188 13.1562 6.1875
Q5.51562 13.8125 5.51562 26.8125
Q5.51562 40.2344 12.7656 48.1094
Q20.0156 56 32.3281 56
Q43.3594 56 49.7812 48.8906
Q56.2031 41.7969 56.2031 29.5938
M47.2188 32.2344
Q47.125 39.5938 43.0938 43.9844
Q39.0625 48.3906 32.4219 48.3906
Q24.9062 48.3906 20.3906 44.1406
Q15.875 39.8906 15.1875 32.1719
z
" id="BitstreamVeraSans-Roman-65"/>
      <path d="
M45.4062 46.3906
L45.4062 75.9844
L54.3906 75.9844
L54.3906 0
L45.4062 0
L45.4062 8.20312
Q42.5781 3.32812 38.25 0.953125
Q33.9375 -1.42188 27.875 -1.42188
Q17.9688 -1.42188 11.7344 6.48438
Q5.51562 14.4062 5.51562 27.2969
Q5.51562 40.1875 11.7344 48.0938
Q17.9688 56 27.875 56
Q33.9375 56 38.25 53.625
Q42.5781 51.2656 45.4062 46.3906
M14.7969 27.2969
Q14.7969 17.3906 18.875 11.75
Q22.9531 6.10938 30.0781 6.10938
Q37.2031 6.10938 41.2969 11.75
Q45.4062 17.3906 45.4062 27.2969
Q45.4062 37.2031 41.2969 42.8438
Q37.2031 48.4844 30.0781 48.4844
Q22.9531 48.4844 18.875 42.8438
Q14.7969 37.2031 14.7969 27.2969" id="BitstreamVeraSans-Roman-64"/>
      <path d="
M18.3125 70.2188
L18.3125 54.6875
L36.8125 54.6875
L36.8125 47.7031
L18.3125 47.7031
L18.3125 18.0156
Q18.3125 11.3281 20.1406 9.42188
Q21.9688 7.51562 27.5938 7.51562
L36.8125 7.51562
L36.8125 0
L27.5938 0
Q17.1875 0 13.2344 3.875
Q9.28125 7.76562 9.28125 18.0156
L9.28125 47.7031
L2.6875 47.7031
L2.6875 54.6875
L9.28125 54.6875
L9.28125 70.2188
z
" id="BitstreamVeraSans-Roman-74"/>
      <path d="
M34.2812 27.4844
Q23.3906 27.4844 19.1875 25
Q14.9844 22.5156 14.9844 16.5
Q14.9844 11.7188 18.1406 8.90625
Q21.2969 6.10938 26.7031 6.10938
Q34.1875 6.10938 38.7031 11.4062
Q43.2188 16.7031 43.2188 25.4844
L43.2188 27.4844
z

M52.2031 31.2031
L52.2031 0
L43.2188 0
L43.2188 8.29688
Q40.1406 3.32812 35.5469 0.953125
Q30.9531 -1.42188 24.3125 -1.42188
Q15.9219 -1.42188 10.9531 3.29688
Q6 8.01562 6 15.9219
Q6 25.1406 12.1719 29.8281
Q18.3594 34.5156 30.6094 34.5156
L43.2188 34.5156
L43.2188 35.4062
Q43.2188 41.6094 39.1406 45
Q35.0625 48.3906 27.6875 48.3906
Q23 48.3906 18.5469 47.2656
Q14.1094 46.1406 10.0156 43.8906
L10.0156 52.2031
Q14.9375 54.1094 19.5781 55.0469
Q24.2188 56 28.6094 56
Q40.4844 56 46.3438 49.8438
Q52.2031 43.7031 52.2031 31.2031" id="BitstreamVeraSans-Roman-61"/>
      <path d="
M44.2812 53.0781
L44.2812 44.5781
Q40.4844 46.5312 36.375 47.5
Q32.2812 48.4844 27.875 48.4844
Q21.1875 48.4844 17.8438 46.4375
Q14.5 44.3906 14.5 40.2812
Q14.5 37.1562 16.8906 35.375
Q19.2812 33.5938 26.5156 31.9844
L29.5938 31.2969
Q39.1562 29.25 43.1875 25.5156
Q47.2188 21.7812 47.2188 15.0938
Q47.2188 7.46875 41.1875 3.01562
Q35.1562 -1.42188 24.6094 -1.42188
Q20.2188 -1.42188 15.4531 -0.5625
Q10.6875 0.296875 5.42188 2
L5.42188 11.2812
Q10.4062 8.6875 15.2344 7.39062
Q20.0625 6.10938 24.8125 6.10938
Q31.1562 6.10938 34.5625 8.28125
Q37.9844 10.4531 37.9844 14.4062
Q37.9844 18.0625 35.5156 20.0156
Q33.0625 21.9688 24.7031 23.7812
L21.5781 24.5156
Q13.2344 26.2656 9.51562 29.9062
Q5.8125 33.5469 5.8125 39.8906
Q5.8125 47.6094 11.2812 51.7969
Q16.75 56 26.8125 56
Q31.7812 56 36.1719 55.2656
Q40.5781 54.5469 44.2812 53.0781" id="BitstreamVeraSans-Roman-73"/>
     </defs>
     <g transform="translate(100.05859375 46.960625)scale(0.1 -0.1)">
      <use xlink:href="#BitstreamVeraSans-Roman-6a"/>
      <use x="27.783203125" xlink:href="#BitstreamVeraSans-Roman-6f"/>
      <use x="88.96484375" xlink:href="#BitstreamVeraSans-Roman-68"/>
      <use x="152.34375" xlink:href="#BitstreamVeraSans-Roman-6e"/>
      <use x="215.72265625" xlink:href="#BitstreamVeraSans-Roman-6e"/>
      <use x="279.1015625" xlink:href="#BitstreamVeraSans-Roman-79"/>
      <use x="338.28125" xlink:href="#BitstreamVeraSans-Roman-20"/>
      <use x="370.068359375" xlink:href="#BitstreamVeraSans-Roman-61"/>
      <use x="431.34765625" xlink:href="#BitstreamVeraSans-Roman-6e"/>
      <use x="494.7265625" xlink:href="#BitstreamVeraSans-Roman-64"/>
      <use x="558.203125" xlink:href="#BitstreamVeraSans-Roman-20"/>
      <use x="589.990234375" xlink:href="#BitstreamVeraSans-Roman-74"/>
      <use x="629.19921875" xlink:href="#BitstreamVeraSans-Roman-68"/>
      <use x="692.578125" xlink:href="#BitstreamVeraSans-Roman-65"/>
      <use x="754.1015625" xlink:href="#BitstreamVeraSans-Roman-20"/>
      <use x="785.888671875" xlink:href="#BitstreamVeraSans-Roman-73"/>
      <use x="837.98828125" xlink:href="#BitstreamVeraSans-Roman-69"/>
      <use x="865.771484375" xlink:href="#BitstreamVeraSans-Roman-6e"/>
      <use x="929.150390625" xlink:href="#BitstreamVeraSans-Roman-73"/>
      <use x="981.25" xlink:href="#BitstreamVeraSans-Roman-61"/>
      <use x="1042.52929688" xlink:href="#BitstreamVeraSans-Roman-61"/>
     </g>
    </g>
    <g id="patch_4">
     <path d="
M59.7386 66.3203
L88.5386 66.3203
L88.5386 56.2403
L59.7386 56.2403
z
" style="fill:#008000;opacity:0.5;stroke:#000000;"/>
    </g>
    <g id="text_2">
     <!-- keira and frodo -->
     <defs>
      <path d="
M37.1094 75.9844
L37.1094 68.5
L28.5156 68.5
Q23.6875 68.5 21.7969 66.5469
Q19.9219 64.5938 19.9219 59.5156
L19.9219 54.6875
L34.7188 54.6875
L34.7188 47.7031
L19.9219 47.7031
L19.9219 0
L10.8906 0
L10.8906 47.7031
L2.29688 47.7031
L2.29688 54.6875
L10.8906 54.6875
L10.8906 58.5
Q10.8906 67.625 15.1406 71.7969
Q19.3906 75.9844 28.6094 75.9844
z
" id="BitstreamVeraSans-Roman-66"/>
      <path d="
M41.1094 46.2969
Q39.5938 47.1719 37.8125 47.5781
Q36.0312 48 33.8906 48
Q26.2656 48 22.1875 43.0469
Q18.1094 38.0938 18.1094 28.8125
L18.1094 0
L9.07812 0
L9.07812 54.6875
L18.1094 54.6875
L18.1094 46.1875
Q20.9531 51.1719 25.4844 53.5781
Q30.0312 56 36.5312 56
Q37.4531 56 38.5781 55.875
Q39.7031 55.7656 41.0625 55.5156
z
" id="BitstreamVeraSans-Roman-72"/>
      <path d="
M9.07812 75.9844
L18.1094 75.9844
L18.1094 31.1094
L44.9219 54.6875
L56.3906 54.6875
L27.3906 29.1094
L57.625 0
L45.9062 0
L18.1094 26.7031
L18.1094 0
L9.07812 0
z
" id="BitstreamVeraSans-Roman-6b"/>
     </defs>
     <g transform="translate(100.05859375 66.3203125)scale(0.1 -0.1)">
      <use xlink:href="#BitstreamVeraSans-Roman-6b"/>
      <use x="54.28515625" xlink:href="#BitstreamVeraSans-Roman-65"/>
      <use x="115.80859375" xlink:href="#BitstreamVeraSans-Roman-69"/>
      <use x="143.591796875" xlink:href="#BitstreamVeraSans-Roman-72"/>
      <use x="184.705078125" xlink:href="#BitstreamVeraSans-Roman-61"/>
      <use x="245.984375" xlink:href="#BitstreamVeraSans-Roman-20"/>
      <use x="277.771484375" xlink:href="#BitstreamVeraSans-Roman-61"/>
      <use x="339.05078125" xlink:href="#BitstreamVeraSans-Roman-6e"/>
      <use x="402.4296875" xlink:href="#BitstreamVeraSans-Roman-64"/>
      <use x="465.90625" xlink:href="#BitstreamVeraSans-Roman-20"/>
      <use x="497.693359375" xlink:href="#BitstreamVeraSans-Roman-66"/>
      <use x="532.8984375" xlink:href="#BitstreamVeraSans-Roman-72"/>
      <use x="571.76171875" xlink:href="#BitstreamVeraSans-Roman-6f"/>
      <use x="632.943359375" xlink:href="#BitstreamVeraSans-Roman-64"/>
      <use x="696.419921875" xlink:href="#BitstreamVeraSans-Roman-6f"/>
     </g>
    </g>
    <g id="patch_5">
     <path d="
M59.7386 85.68
L88.5386 85.68
L88.5386 75.6
L59.7386 75.6
z
" style="fill:#0000ff;opacity:0.5;stroke:#000000;"/>
    </g>
    <g id="text_3">
     <!-- abdi and hayriyeaa -->
     <defs>
      <path d="
M48.6875 27.2969
Q48.6875 37.2031 44.6094 42.8438
Q40.5312 48.4844 33.4062 48.4844
Q26.2656 48.4844 22.1875 42.8438
Q18.1094 37.2031 18.1094 27.2969
Q18.1094 17.3906 22.1875 11.75
Q26.2656 6.10938 33.4062 6.10938
Q40.5312 6.10938 44.6094 11.75
Q48.6875 17.3906 48.6875 27.2969
M18.1094 46.3906
Q20.9531 51.2656 25.2656 53.625
Q29.5938 56 35.5938 56
Q45.5625 56 51.7812 48.0938
Q58.0156 40.1875 58.0156 27.2969
Q58.0156 14.4062 51.7812 6.48438
Q45.5625 -1.42188 35.5938 -1.42188
Q29.5938 -1.42188 25.2656 0.953125
Q20.9531 3.32812 18.1094 8.20312
L18.1094 0
L9.07812 0
L9.07812 75.9844
L18.1094 75.9844
z
" id="BitstreamVeraSans-Roman-62"/>
     </defs>
     <g transform="translate(100.05859375 85.68)scale(0.1 -0.1)">
      <use xlink:href="#BitstreamVeraSans-Roman-61"/>
      <use x="61.279296875" xlink:href="#BitstreamVeraSans-Roman-62"/>
      <use x="124.755859375" xlink:href="#BitstreamVeraSans-Roman-64"/>
      <use x="188.232421875" xlink:href="#BitstreamVeraSans-Roman-69"/>
      <use x="216.015625" xlink:href="#BitstreamVeraSans-Roman-20"/>
      <use x="247.802734375" xlink:href="#BitstreamVeraSans-Roman-61"/>
      <use x="309.08203125" xlink:href="#BitstreamVeraSans-Roman-6e"/>
      <use x="372.4609375" xlink:href="#BitstreamVeraSans-Roman-64"/>
      <use x="435.9375" xlink:href="#BitstreamVeraSans-Roman-20"/>
      <use x="467.724609375" xlink:href="#BitstreamVeraSans-Roman-68"/>
      <use x="531.103515625" xlink:href="#BitstreamVeraSans-Roman-61"/>
      <use x="592.3828125" xlink:href="#BitstreamVeraSans-Roman-79"/>
      <use x="651.5625" xlink:href="#BitstreamVeraSans-Roman-72"/>
      <use x="692.67578125" xlink:href="#BitstreamVeraSans-Roman-69"/>
      <use x="720.458984375" xlink:href="#BitstreamVeraSans-Roman-79"/>
      <use x="779.638671875" xlink:href="#BitstreamVeraSans-Roman-65"/>
      <use x="841.162109375" xlink:href="#BitstreamVeraSans-Roman-61"/>
      <use x="902.44140625" xlink:href="#BitstreamVeraSans-Roman-61"/>
     </g>
    </g>
    <g id="patch_6">
     <path d="
M59.7386 105.04
L88.5386 105.04
L88.5386 94.9597
L59.7386 94.9597
z
" style="fill:#800080;opacity:0.5;stroke:#000000;"/>
    </g>
    <g id="text_4">
     <!-- nuri and sebahat -->
     <defs>
      <path d="
M8.5 21.5781
L8.5 54.6875
L17.4844 54.6875
L17.4844 21.9219
Q17.4844 14.1562 20.5 10.2656
Q23.5312 6.39062 29.5938 6.39062
Q36.8594 6.39062 41.0781 11.0312
Q45.3125 15.6719 45.3125 23.6875
L45.3125 54.6875
L54.2969 54.6875
L54.2969 0
L45.3125 0
L45.3125 8.40625
Q42.0469 3.42188 37.7188 1
Q33.4062 -1.42188 27.6875 -1.42188
Q18.2656 -1.42188 13.375 4.4375
Q8.5 10.2969 8.5 21.5781" id="BitstreamVeraSans-Roman-75"/>
     </defs>
     <g transform="translate(100.05859375 105.0396875)scale(0.1 -0.1)">
      <use xlink:href="#BitstreamVeraSans-Roman-6e"/>
      <use x="63.37890625" xlink:href="#BitstreamVeraSans-Roman-75"/>
      <use x="126.7578125" xlink:href="#BitstreamVeraSans-Roman-72"/>
      <use x="167.87109375" xlink:href="#BitstreamVeraSans-Roman-69"/>
      <use x="195.654296875" xlink:href="#BitstreamVeraSans-Roman-20"/>
      <use x="227.44140625" xlink:href="#BitstreamVeraSans-Roman-61"/>
      <use x="288.720703125" xlink:href="#BitstreamVeraSans-Roman-6e"/>
      <use x="352.099609375" xlink:href="#BitstreamVeraSans-Roman-64"/>
      <use x="415.576171875" xlink:href="#BitstreamVeraSans-Roman-20"/>
      <use x="447.36328125" xlink:href="#BitstreamVeraSans-Roman-73"/>
      <use x="499.462890625" xlink:href="#BitstreamVeraSans-Roman-65"/>
      <use x="560.986328125" xlink:href="#BitstreamVeraSans-Roman-62"/>
      <use x="624.462890625" xlink:href="#BitstreamVeraSans-Roman-61"/>
      <use x="685.7421875" xlink:href="#BitstreamVeraSans-Roman-68"/>
      <use x="749.12109375" xlink:href="#BitstreamVeraSans-Roman-61"/>
      <use x="810.400390625" xlink:href="#BitstreamVeraSans-Roman-74"/>
     </g>
    </g>
    <g id="patch_7">
     <path d="
M238.51 46.9606
L267.31 46.9606
L267.31 36.8806
L238.51 36.8806
z
" style="fill:#808080;opacity:0.5;stroke:#000000;"/>
    </g>
    <g id="text_5">
     <!-- hamza and saziee -->
     <defs>
      <path d="
M52 44.1875
Q55.375 50.25 60.0625 53.125
Q64.75 56 71.0938 56
Q79.6406 56 84.2812 50.0156
Q88.9219 44.0469 88.9219 33.0156
L88.9219 0
L79.8906 0
L79.8906 32.7188
Q79.8906 40.5781 77.0938 44.375
Q74.3125 48.1875 68.6094 48.1875
Q61.625 48.1875 57.5625 43.5469
Q53.5156 38.9219 53.5156 30.9062
L53.5156 0
L44.4844 0
L44.4844 32.7188
Q44.4844 40.625 41.7031 44.4062
Q38.9219 48.1875 33.1094 48.1875
Q26.2188 48.1875 22.1562 43.5312
Q18.1094 38.875 18.1094 30.9062
L18.1094 0
L9.07812 0
L9.07812 54.6875
L18.1094 54.6875
L18.1094 46.1875
Q21.1875 51.2188 25.4844 53.6094
Q29.7812 56 35.6875 56
Q41.6562 56 45.8281 52.9688
Q50 49.9531 52 44.1875" id="BitstreamVeraSans-Roman-6d"/>
      <path d="
M5.51562 54.6875
L48.1875 54.6875
L48.1875 46.4844
L14.4062 7.17188
L48.1875 7.17188
L48.1875 0
L4.29688 0
L4.29688 8.20312
L38.0938 47.5156
L5.51562 47.5156
z
" id="BitstreamVeraSans-Roman-7a"/>
     </defs>
     <g transform="translate(278.83015625 46.960625)scale(0.1 -0.1)">
      <use xlink:href="#BitstreamVeraSans-Roman-68"/>
      <use x="63.37890625" xlink:href="#BitstreamVeraSans-Roman-61"/>
      <use x="124.658203125" xlink:href="#BitstreamVeraSans-Roman-6d"/>
      <use x="222.0703125" xlink:href="#BitstreamVeraSans-Roman-7a"/>
      <use x="274.560546875" xlink:href="#BitstreamVeraSans-Roman-61"/>
      <use x="335.83984375" xlink:href="#BitstreamVeraSans-Roman-20"/>
      <use x="367.626953125" xlink:href="#BitstreamVeraSans-Roman-61"/>
      <use x="428.90625" xlink:href="#BitstreamVeraSans-Roman-6e"/>
      <use x="492.28515625" xlink:href="#BitstreamVeraSans-Roman-64"/>
      <use x="555.76171875" xlink:href="#BitstreamVeraSans-Roman-20"/>
      <use x="587.548828125" xlink:href="#BitstreamVeraSans-Roman-73"/>
      <use x="639.6484375" xlink:href="#BitstreamVeraSans-Roman-61"/>
      <use x="700.927734375" xlink:href="#BitstreamVeraSans-Roman-7a"/>
      <use x="753.41796875" xlink:href="#BitstreamVeraSans-Roman-69"/>
      <use x="781.201171875" xlink:href="#BitstreamVeraSans-Roman-65"/>
      <use x="842.724609375" xlink:href="#BitstreamVeraSans-Roman-65"/>
     </g>
    </g>
    <g id="patch_8">
     <path d="
M238.51 66.3203
L267.31 66.3203
L267.31 56.2403
L238.51 56.2403
z
" style="fill:#ffff00;opacity:0.5;stroke:#000000;"/>
    </g>
    <g id="text_6">
     <!-- eddy and johhanaiaa -->
     <g transform="translate(278.83015625 66.3203125)scale(0.1 -0.1)">
      <use xlink:href="#BitstreamVeraSans-Roman-65"/>
      <use x="61.5234375" xlink:href="#BitstreamVeraSans-Roman-64"/>
      <use x="125.0" xlink:href="#BitstreamVeraSans-Roman-64"/>
      <use x="188.4765625" xlink:href="#BitstreamVeraSans-Roman-79"/>
      <use x="247.65625" xlink:href="#BitstreamVeraSans-Roman-20"/>
      <use x="279.443359375" xlink:href="#BitstreamVeraSans-Roman-61"/>
      <use x="340.72265625" xlink:href="#BitstreamVeraSans-Roman-6e"/>
      <use x="404.1015625" xlink:href="#BitstreamVeraSans-Roman-64"/>
      <use x="467.578125" xlink:href="#BitstreamVeraSans-Roman-20"/>
      <use x="499.365234375" xlink:href="#BitstreamVeraSans-Roman-6a"/>
      <use x="527.1484375" xlink:href="#BitstreamVeraSans-Roman-6f"/>
      <use x="588.330078125" xlink:href="#BitstreamVeraSans-Roman-68"/>
      <use x="651.708984375" xlink:href="#BitstreamVeraSans-Roman-68"/>
      <use x="715.087890625" xlink:href="#BitstreamVeraSans-Roman-61"/>
      <use x="776.3671875" xlink:href="#BitstreamVeraSans-Roman-6e"/>
      <use x="839.74609375" xlink:href="#BitstreamVeraSans-Roman-61"/>
      <use x="901.025390625" xlink:href="#BitstreamVeraSans-Roman-69"/>
      <use x="928.80859375" xlink:href="#BitstreamVeraSans-Roman-61"/>
      <use x="990.087890625" xlink:href="#BitstreamVeraSans-Roman-61"/>
     </g>
    </g>
    <g id="patch_9">
     <path d="
M238.51 85.68
L267.31 85.68
L267.31 75.6
L238.51 75.6
z
" style="fill:#ff0000;opacity:0.5;stroke:#000000;"/>
    </g>
    <g id="text_7">
     <!-- hayri and duriye -->
     <g transform="translate(278.83015625 85.68)scale(0.1 -0.1)">
      <use xlink:href="#BitstreamVeraSans-Roman-68"/>
      <use x="63.37890625" xlink:href="#BitstreamVeraSans-Roman-61"/>
      <use x="124.658203125" xlink:href="#BitstreamVeraSans-Roman-79"/>
      <use x="183.837890625" xlink:href="#BitstreamVeraSans-Roman-72"/>
      <use x="224.951171875" xlink:href="#BitstreamVeraSans-Roman-69"/>
      <use x="252.734375" xlink:href="#BitstreamVeraSans-Roman-20"/>
      <use x="284.521484375" xlink:href="#BitstreamVeraSans-Roman-61"/>
      <use x="345.80078125" xlink:href="#BitstreamVeraSans-Roman-6e"/>
      <use x="409.1796875" xlink:href="#BitstreamVeraSans-Roman-64"/>
      <use x="472.65625" xlink:href="#BitstreamVeraSans-Roman-20"/>
      <use x="504.443359375" xlink:href="#BitstreamVeraSans-Roman-64"/>
      <use x="567.919921875" xlink:href="#BitstreamVeraSans-Roman-75"/>
      <use x="631.298828125" xlink:href="#BitstreamVeraSans-Roman-72"/>
      <use x="672.412109375" xlink:href="#BitstreamVeraSans-Roman-69"/>
      <use x="700.1953125" xlink:href="#BitstreamVeraSans-Roman-79"/>
      <use x="759.375" xlink:href="#BitstreamVeraSans-Roman-65"/>
     </g>
    </g>
    <g id="patch_10">
     <path d="
M238.51 105.04
L267.31 105.04
L267.31 94.9597
L238.51 94.9597
z
" style="fill:#ffa500;opacity:0.5;stroke:#000000;"/>
    </g>
    <g id="text_8">
     <!-- jimmy and fellonaa -->
     <defs>
      <path d="
M9.42188 75.9844
L18.4062 75.9844
L18.4062 0
L9.42188 0
z
" id="BitstreamVeraSans-Roman-6c"/>
     </defs>
     <g transform="translate(278.83015625 105.0396875)scale(0.1 -0.1)">
      <use xlink:href="#BitstreamVeraSans-Roman-6a"/>
      <use x="27.783203125" xlink:href="#BitstreamVeraSans-Roman-69"/>
      <use x="55.56640625" xlink:href="#BitstreamVeraSans-Roman-6d"/>
      <use x="152.978515625" xlink:href="#BitstreamVeraSans-Roman-6d"/>
      <use x="250.390625" xlink:href="#BitstreamVeraSans-Roman-79"/>
      <use x="309.5703125" xlink:href="#BitstreamVeraSans-Roman-20"/>
      <use x="341.357421875" xlink:href="#BitstreamVeraSans-Roman-61"/>
      <use x="402.63671875" xlink:href="#BitstreamVeraSans-Roman-6e"/>
      <use x="466.015625" xlink:href="#BitstreamVeraSans-Roman-64"/>
      <use x="529.4921875" xlink:href="#BitstreamVeraSans-Roman-20"/>
      <use x="561.279296875" xlink:href="#BitstreamVeraSans-Roman-66"/>
      <use x="596.484375" xlink:href="#BitstreamVeraSans-Roman-65"/>
      <use x="658.0078125" xlink:href="#BitstreamVeraSans-Roman-6c"/>
      <use x="685.791015625" xlink:href="#BitstreamVeraSans-Roman-6c"/>
      <use x="713.57421875" xlink:href="#BitstreamVeraSans-Roman-6f"/>
      <use x="774.755859375" xlink:href="#BitstreamVeraSans-Roman-6e"/>
      <use x="838.134765625" xlink:href="#BitstreamVeraSans-Roman-61"/>
      <use x="899.4140625" xlink:href="#BitstreamVeraSans-Roman-61"/>
     </g>
    </g>
   </g>
  </g>
 </g>
</svg>
